<svg width="29" height="28" viewBox="0 0 29 28" fill="none" xmlns="http://www.w3.org/2000/svg">
<rect x="0.5" width="28" height="28" rx="6" fill="#36FBA1"/>
<path d="M10.0419 19H7.21662V10.2727H10.1314C10.9865 10.2727 11.7209 10.4474 12.3345 10.7969C12.9482 11.1435 13.4183 11.642 13.745 12.2926C14.0746 12.9403 14.2393 13.7173 14.2393 14.6236C14.2393 15.5327 14.0732 16.3139 13.7408 16.9673C13.4112 17.6207 12.9339 18.1236 12.3089 18.4759C11.6839 18.8253 10.9283 19 10.0419 19ZM8.53338 17.8494H9.96946C10.6342 17.8494 11.1868 17.7244 11.6271 17.4744C12.0675 17.2216 12.397 16.8565 12.6158 16.3793C12.8345 15.8991 12.9439 15.3139 12.9439 14.6236C12.9439 13.9389 12.8345 13.358 12.6158 12.8807C12.3999 12.4034 12.0774 12.0412 11.6484 11.794C11.2195 11.5469 10.6868 11.4233 10.0504 11.4233H8.53338V17.8494ZM23.1254 13.1108H21.7958C21.7447 12.8267 21.6495 12.5767 21.5103 12.3608C21.3711 12.1449 21.2006 11.9616 20.9989 11.8111C20.7972 11.6605 20.5714 11.5469 20.3214 11.4702C20.0742 11.3935 19.8114 11.3551 19.533 11.3551C19.0302 11.3551 18.5799 11.4815 18.1822 11.7344C17.7873 11.9872 17.4748 12.358 17.2447 12.8466C17.0174 13.3352 16.9038 13.9318 16.9038 14.6364C16.9038 15.3466 17.0174 15.946 17.2447 16.4347C17.4748 16.9233 17.7887 17.2926 18.1864 17.5426C18.5842 17.7926 19.0316 17.9176 19.5288 17.9176C19.8043 17.9176 20.0657 17.8807 20.3129 17.8068C20.5629 17.7301 20.7887 17.6179 20.9904 17.4702C21.1921 17.3224 21.3626 17.142 21.5018 16.929C21.6438 16.7131 21.7418 16.4659 21.7958 16.1875L23.1254 16.1918C23.0543 16.6207 22.9165 17.0156 22.712 17.3764C22.5103 17.7344 22.2504 18.044 21.9322 18.3054C21.6168 18.5639 21.256 18.7642 20.8498 18.9062C20.4435 19.0483 20.0004 19.1193 19.5202 19.1193C18.7646 19.1193 18.0913 18.9403 17.5004 18.5824C16.9094 18.2216 16.4435 17.706 16.1026 17.0355C15.7646 16.3651 15.5955 15.5653 15.5955 14.6364C15.5955 13.7045 15.766 12.9048 16.1069 12.2372C16.4478 11.5668 16.9137 11.0526 17.5046 10.6946C18.0955 10.3338 18.7674 10.1534 19.5202 10.1534C19.9833 10.1534 20.4151 10.2202 20.8157 10.3537C21.2191 10.4844 21.5813 10.6776 21.9023 10.9332C22.2234 11.1861 22.489 11.4957 22.6992 11.8622C22.9094 12.2259 23.0515 12.642 23.1254 13.1108Z" fill="black" fill-opacity="0.4"/>
</svg>
