<svg width="105" height="30" viewBox="0 0 105 30" fill="none" xmlns="http://www.w3.org/2000/svg">
<path d="M36.2166 16.6517C35.3235 16.1564 34.8535 15.7555 34.8535 15.1895C34.8535 14.4584 35.4881 14.0103 36.4987 14.0103C37.6738 14.0103 38.7079 14.5056 38.7079 14.5056L39.5305 11.9821C39.5305 11.9821 38.7784 11.3925 36.5457 11.3925C33.4433 11.3925 31.2811 13.1849 31.2811 15.6847C31.2811 17.0998 32.2917 18.1846 33.6313 18.9629C34.7125 19.5761 35.0885 20.0241 35.0885 20.6609C35.0885 21.3448 34.5479 21.8873 33.5373 21.8873C32.0332 21.8873 30.623 21.109 30.623 21.109L29.7534 23.6325C29.7534 23.6325 31.0696 24.505 33.2553 24.505C36.4517 24.505 38.7314 22.9249 38.7314 20.0949C38.7784 18.5384 37.6033 17.4535 36.2166 16.6517Z" fill="white"/>
<path d="M48.9549 11.3453C47.3803 11.3453 46.1581 12.1 45.1945 13.232L45.1475 13.2084L46.5107 6.039H42.9383L39.4834 24.2692H43.0323L44.2074 18.0431C44.6775 15.6847 45.8761 14.2461 47.0042 14.2461C47.8033 14.2461 48.1088 14.7886 48.1088 15.5668C48.1088 16.0621 48.0618 16.6517 47.9443 17.1469L46.6047 24.2928H50.1536L51.5402 16.9347C51.7047 16.1564 51.7988 15.2366 51.7988 14.5999C51.8458 12.5481 50.8116 11.3453 48.9549 11.3453Z" fill="white"/>
<path d="M59.884 11.3453C55.6065 11.3453 52.7627 15.2131 52.7627 19.5289C52.7627 22.2882 54.4549 24.5286 57.6512 24.5286C61.8582 24.5286 64.6785 20.7552 64.6785 16.3451C64.702 13.7745 63.2214 11.3453 59.884 11.3453ZM58.1448 21.7693C56.9227 21.7693 56.4291 20.7316 56.4291 19.4345C56.4291 17.3828 57.4867 14.0575 59.4139 14.0575C60.6831 14.0575 61.0826 15.1423 61.0826 16.2036C61.0826 18.4204 60.025 21.7693 58.1448 21.7693Z" fill="white"/>
<path d="M73.7971 11.3453C71.3998 11.3453 70.0366 13.4679 70.0366 13.4679H69.9896L70.2012 11.5576H67.0518C66.8873 12.8547 66.6053 14.8121 66.3232 16.2979L63.8555 29.3161H67.4044L68.3915 24.0334H68.462C68.462 24.0334 69.1906 24.505 70.5537 24.505C74.7372 24.505 77.4635 20.2128 77.4635 15.8734C77.4635 13.4915 76.4059 11.3453 73.7971 11.3453ZM70.4127 21.8401C69.4961 21.8401 68.9555 21.3212 68.9555 21.3212L69.5431 17.9959C69.9661 15.7791 71.1178 14.2933 72.3399 14.2933C73.421 14.2933 73.7501 15.3074 73.7501 16.2507C73.7501 18.5384 72.3869 21.8401 70.4127 21.8401Z" fill="white"/>
<path d="M82.5403 6.22766C81.4122 6.22766 80.4956 7.12384 80.4956 8.30303C80.4956 9.36429 81.1537 10.0954 82.1643 10.0954H82.2113C83.3159 10.0954 84.2795 9.34071 84.303 8.02002C84.3265 6.95876 83.6215 6.22766 82.5403 6.22766Z" fill="white"/>
<path d="M77.5576 24.2692H81.13L83.5508 11.6284H79.9549L77.5576 24.2692Z" fill="white"/>
<path d="M92.5759 11.6047H90.1081L90.2257 11.0152C90.4372 9.78881 91.1423 8.70396 92.3409 8.70396C92.9755 8.70396 93.469 8.89263 93.469 8.89263L94.1741 6.10975C94.1741 6.10975 93.563 5.80316 92.2469 5.80316C90.9777 5.80316 89.7321 6.15692 88.7685 6.98235C87.5464 8.02003 86.9823 9.5058 86.7003 11.0152L86.6062 11.6047H84.9611L84.444 14.2933H86.0892L84.209 24.2692H87.7579L89.6381 14.2933H92.0824L92.5759 11.6047Z" fill="white"/>
<path d="M101.131 11.6284C101.131 11.6284 98.8982 17.2413 97.9111 20.3072H97.8641C97.7936 19.3166 96.9945 11.6284 96.9945 11.6284H93.2576L95.3963 23.2315C95.4433 23.491 95.4198 23.656 95.3258 23.8211C94.9028 24.623 94.2212 25.4012 93.3986 25.9672C92.7405 26.4625 91.9884 26.7691 91.4009 26.9813L92.388 30.0001C93.1166 29.835 94.5972 29.2454 95.8664 28.0662C97.4881 26.5332 98.9922 24.1985 100.52 20.9911L104.868 11.6284H101.131Z" fill="white"/>
<path d="M17.5094 3.42124C17.5094 3.42124 17.1804 3.51558 16.6398 3.68066C16.5458 3.37407 16.4048 3.02032 16.2168 2.64298C15.6057 1.46379 14.6891 0.827035 13.608 0.827035C13.5375 0.827035 13.467 0.827035 13.373 0.850619C13.3495 0.803451 13.3025 0.779868 13.279 0.7327C12.8089 0.213859 12.1978 -0.0219779 11.4693 0.00160577C10.0591 0.0487732 8.64896 1.06287 7.52083 2.87882C6.72174 4.15234 6.11068 5.75603 5.94616 7.00596C4.32448 7.50122 3.19635 7.85498 3.17285 7.87856C2.35026 8.13798 2.32676 8.16156 2.23275 8.93983C2.16224 9.52942 0 26.1323 0 26.1323L17.768 29.2218V3.39766C17.6269 3.39766 17.5564 3.42124 17.5094 3.42124ZM13.3965 4.69476C12.4564 4.97776 11.4223 5.30794 10.4116 5.61452C10.6937 4.50609 11.2577 3.39766 11.9158 2.66656C12.1743 2.40714 12.5269 2.10055 12.9264 1.91188C13.326 2.7609 13.42 3.9165 13.3965 4.69476ZM11.4693 0.968537C11.7983 0.968537 12.0803 1.03929 12.3154 1.18079C11.9393 1.36946 11.5633 1.67605 11.2107 2.0298C10.3176 2.99673 9.63606 4.50609 9.35403 5.9447C8.50794 6.20412 7.66185 6.46354 6.88626 6.69937C7.40332 4.43534 9.30703 1.0157 11.4693 0.968537ZM8.74297 13.9396C8.83698 15.4489 12.8089 15.7791 13.0439 19.3402C13.2085 22.1467 11.5633 24.057 9.18952 24.1985C6.3222 24.3871 4.74752 22.6891 4.74752 22.6891L5.35859 20.0949C5.35859 20.0949 6.93327 21.2977 8.20241 21.2033C9.025 21.1562 9.33053 20.4722 9.30703 20.0006C9.18952 18.0195 5.94616 18.1375 5.73463 14.8829C5.54661 12.1472 7.33281 9.38791 11.2812 9.12849C12.8089 9.03416 13.5845 9.4115 13.5845 9.4115L12.6914 12.8075C12.6914 12.8075 11.6808 12.3359 10.4822 12.4302C8.74297 12.5481 8.71946 13.6566 8.74297 13.9396ZM14.3366 4.41176C14.3366 3.70425 14.2426 2.69015 13.9135 1.84113C14.9947 2.05339 15.5117 3.25616 15.7467 3.98725C15.3237 4.10517 14.8536 4.24667 14.3366 4.41176Z" fill="white"/>
<path d="M18.3081 29.1747L25.6879 27.3352C25.6879 27.3352 22.5151 5.80326 22.4916 5.66176C22.4681 5.52025 22.3506 5.42592 22.233 5.42592C22.1155 5.42592 20.0473 5.37875 20.0473 5.37875C20.0473 5.37875 18.7782 4.1524 18.3081 3.68073V29.1747Z" fill="white"/>
</svg>
