<svg width="21" height="20" viewBox="0 0 21 20" fill="none" xmlns="http://www.w3.org/2000/svg">
<path fill-rule="evenodd" clip-rule="evenodd" d="M12.8226 13.3833C11.8996 14.0841 10.7484 14.5 9.5 14.5C6.46243 14.5 4 12.0376 4 9C4 5.96243 6.46243 3.5 9.5 3.5C12.5376 3.5 15 5.96243 15 9C15 10.2484 14.5841 11.3996 13.8833 12.3226L16.7803 15.2197C17.0732 15.5126 17.0732 15.9874 16.7803 16.2803C16.4874 16.5732 16.0126 16.5732 15.7197 16.2803L12.8226 13.3833ZM13.5 9C13.5 11.2091 11.7091 13 9.5 13C7.29086 13 5.5 11.2091 5.5 9C5.5 6.79086 7.29086 5 9.5 5C11.7091 5 13.5 6.79086 13.5 9Z" fill="#B5B5B5"/>
</svg>
